<?xml version="1.0" standalone="no"?>
<!DOCTYPE svg PUBLIC "-//W3C//DTD SVG 20010904//EN"
 "http://www.w3.org/TR/2001/REC-SVG-20010904/DTD/svg10.dtd">
<svg version="1.0" xmlns="http://www.w3.org/2000/svg"
 width="512.000000pt" height="512.000000pt" viewBox="0 0 512.000000 512.000000"
 preserveAspectRatio="xMidYMid meet">

<g transform="translate(0.000000,512.000000) scale(0.100000,-0.100000)"
fill="#000000" stroke="none">
<path d="M1487 4032 l-1067 -1067 1063 -1063 c584 -584 1067 -1062 1072 -1062
13 0 805 792 805 805 0 6 -364 375 -810 820 l-810 810 397 397 c219 219 402
398 408 398 5 0 191 -181 412 -402 l403 -403 -300 -300 -300 -300 408 -408
407 -407 558 558 557 557 -1068 1068 -1067 1067 -1068 -1068z"/>
<path d="M675 2200 l-150 -150 1015 -1015 1015 -1015 1015 1015 1015 1015
-153 152 -152 153 -863 -863 -862 -862 -860 860 c-473 473 -862 860 -865 860
-3 0 -73 -68 -155 -150z"/>
</g>
</svg>
